<svg xmlns="http://www.w3.org/2000/svg" width="22" height="16" viewBox="0 0 22 16"><g><g><path d="M16.999 8.905a3.264 3.264 0 0 1-3.258 3.263 3.265 3.265 0 0 1-3.26-3.263 3.265 3.265 0 0 1 3.26-3.262 3.263 3.263 0 0 1 3.258 3.262zm4.99-4.33v8.506a2.914 2.914 0 0 1-2.909 2.913H2.92A2.915 2.915 0 0 1 .01 13.08V4.575a2.915 2.915 0 0 1 2.652-2.9c.13-.556.492-.935.924-.935h2.097c.43 0 .789.375.921.922H9.57l1.437-1.66h4.911l1.77 1.66h1.392a2.914 2.914 0 0 1 2.91 2.913zM2.641 6.513a.55.55 0 0 0-1.1 0v5.806a.55.55 0 1 0 1.1 0zM5.95 3.472a.581.581 0 0 0-.58-.582H3.877c-.32 0-.58.26-.58.582v.34c0 .321.26.582.58.582h1.49c.32 0 .58-.26.58-.581zm12.44 5.433a4.657 4.657 0 0 0-4.648-4.655 4.658 4.658 0 0 0-4.65 4.655 4.658 4.658 0 0 0 4.65 4.654 4.656 4.656 0 0 0 4.648-4.654z"/><path fill="#fff" d="M16.999 8.905a3.264 3.264 0 0 1-3.258 3.263 3.265 3.265 0 0 1-3.26-3.263 3.265 3.265 0 0 1 3.26-3.262 3.263 3.263 0 0 1 3.258 3.262zm4.99-4.33v8.506a2.914 2.914 0 0 1-2.909 2.913H2.92A2.915 2.915 0 0 1 .01 13.08V4.575a2.915 2.915 0 0 1 2.652-2.9c.13-.556.492-.935.924-.935h2.097c.43 0 .789.375.921.922H9.57l1.437-1.66h4.911l1.77 1.66h1.392a2.914 2.914 0 0 1 2.91 2.913zM2.641 6.513a.55.55 0 0 0-1.1 0v5.806a.55.55 0 1 0 1.1 0zM5.95 3.472a.581.581 0 0 0-.58-.582H3.877c-.32 0-.58.26-.58.582v.34c0 .321.26.582.58.582h1.49c.32 0 .58-.26.58-.581zm12.44 5.433a4.657 4.657 0 0 0-4.648-4.655 4.658 4.658 0 0 0-4.65 4.655 4.658 4.658 0 0 0 4.65 4.654 4.656 4.656 0 0 0 4.648-4.654z"/></g></g></svg>